<svg xmlns="http://www.w3.org/2000/svg" width="33.196" height="39.865" viewBox="0 0 33.196 39.865">
  <g id="Atom_Icon_Schloss" data-name="Atom / Icon / Schloss" transform="translate(0)">
    <path id="Pfad_139" data-name="Pfad 139" d="M43.3,159.115a9.749,9.749,0,0,0-9.749,9.751v16.061l3.949-3.54V168.866a5.8,5.8,0,0,1,11.6,0v15.591l3.951.541V168.866A9.751,9.751,0,0,0,43.3,159.115Z" transform="translate(-26.704 -159.115)" fill="#4f5456"/>
    <path id="Pfad_140" data-name="Pfad 140" d="M59.012,166.757H34.584a4.674,4.674,0,0,0-4.384,4.917v14.419a4.674,4.674,0,0,0,4.384,4.917H59.012a4.674,4.674,0,0,0,4.384-4.917V171.674A4.674,4.674,0,0,0,59.012,166.757Zm-9.9,11.453a3.127,3.127,0,0,1-.339.3v4.57a1.743,1.743,0,0,1-1.743,1.745h-.464a1.744,1.744,0,0,1-1.745-1.745v-4.57c-.047-.041-.1-.069-.149-.112a3.141,3.141,0,1,1,4.439-.188Z" transform="translate(-30.2 -151.145)" fill="#4f5456"/>
  </g>
</svg>
