<svg id="Molecule_Input_Counter" data-name="Molecule / Input / Counter" xmlns="http://www.w3.org/2000/svg" width="90" height="43" viewBox="0 0 90 43">
  <g id="Gruppe_568" data-name="Gruppe 568" transform="translate(-0.101 3)">
    <rect id="Rechteck_238" data-name="Rechteck 238" width="90" height="36" rx="4" transform="translate(0.101)" fill="#ededee"/>
    <text id="_1" data-name="1" transform="translate(23.101 24)" fill="#4f5456" font-size="16" font-family="GalanoGrotesque-Light, Galano Grotesque" font-weight="300"><tspan x="0" y="0">1</tspan></text>
  </g>
  <g id="Gruppe_567" data-name="Gruppe 567" transform="translate(52)">
    <path id="Rechteck_242" data-name="Rechteck 242" d="M0,0H34a4,4,0,0,1,4,4V18a0,0,0,0,1,0,0H0a0,0,0,0,1,0,0V0A0,0,0,0,1,0,0Z" transform="translate(0 3)" fill="rgba(79,84,86,0.2)"/>
    <text id="_" data-name="+" transform="translate(12 19)" fill="#4f5456" font-size="18" font-family="Poppins-Medium, Poppins" font-weight="500"><tspan x="0" y="0">+</tspan></text>
  </g>
  <g id="Gruppe_566" data-name="Gruppe 566" transform="translate(52 18)">
    <path id="Rechteck_239" data-name="Rechteck 239" d="M0,0H38a0,0,0,0,1,0,0V14a4,4,0,0,1-4,4H0a0,0,0,0,1,0,0V0A0,0,0,0,1,0,0Z" transform="translate(0 3)" fill="rgba(79,84,86,0.1)"/>
    <text id="_-" data-name="-" transform="translate(13 19)" fill="#4f5456" font-size="18" font-family="Poppins-Medium, Poppins" font-weight="500"><tspan x="0" y="0">-</tspan></text>
  </g>
</svg>
