<svg xmlns="http://www.w3.org/2000/svg" width="24.103" height="18.645" viewBox="0 0 24.103 18.645">
  <g id="Atom_Icon_Sonstige" data-name="Atom / Icon / Sonstige" transform="translate(0.65 0.65)">
    <g id="Gruppe_455" data-name="Gruppe 455" transform="translate(-354.435 -220.794)">
      <ellipse id="Ellipse_66" data-name="Ellipse 66" cx="11.401" cy="8.672" rx="11.401" ry="8.672" transform="translate(354.435 220.794)" fill="none" stroke="#3f4344" stroke-miterlimit="10" stroke-width="1.3"/>
      <path id="Pfad_243" data-name="Pfad 243" d="M360.3,231.413a1.947,1.947,0,1,1,1.947-1.947A1.947,1.947,0,0,1,360.3,231.413Zm5.535,0a1.947,1.947,0,1,1,1.947-1.947A1.947,1.947,0,0,1,365.837,231.413Zm5.535,0a1.947,1.947,0,1,1,1.947-1.947A1.947,1.947,0,0,1,371.372,231.413Z" fill="#3f4344"/>
    </g>
  </g>
</svg>
