<svg xmlns="http://www.w3.org/2000/svg" xmlns:xlink="http://www.w3.org/1999/xlink" width="187" height="82" viewBox="0 0 187 82">
  <defs>
    <filter id="Rechteck_317" x="0" y="0" width="187" height="82" filterUnits="userSpaceOnUse">
      <feOffset dy="3" input="SourceAlpha"/>
      <feGaussianBlur stdDeviation="3" result="blur"/>
      <feFlood flood-opacity="0.161"/>
      <feComposite operator="in" in2="blur"/>
      <feComposite in="SourceGraphic"/>
    </filter>
  </defs>
  <g id="Molecule_Button_Katalog_Sticky" data-name="Molecule / Button / Katalog Sticky" transform="translate(9 6)">
    <g transform="matrix(1, 0, 0, 1, -9, -6)" filter="url(#Rechteck_317)">
      <rect id="Rechteck_317-2" data-name="Rechteck 317" width="169" height="64" rx="32" transform="translate(9 6)" fill="#00778c"/>
    </g>
    <text id="Katalog" transform="translate(26 20)" fill="#fff" font-size="18" font-family="Poppins-Bold, Poppins" font-weight="700" letter-spacing="0.001em"><tspan x="0" y="19">Katalog</tspan></text>
    <g id="wSwbRo" transform="translate(111.393 18.479)">
      <g id="Gruppe_158" data-name="Gruppe 158">
        <path id="Pfad_121" data-name="Pfad 121" d="M541.053,620.089c-.037-.425-.075-.658-.075-.891q-.03-8.964-.055-17.929a5.125,5.125,0,0,1,1.581-3.786A13.931,13.931,0,0,1,555.5,593.5c1.156.2,1.393.464,1.4,1.752.044,4.98.059,9.96.082,14.94.006,1.356.01,2.712,0,4.068-.006,1.02-.092,1.11-1.111.958a16.9,16.9,0,0,0-8.96.957,15.479,15.479,0,0,0-4.993,3.206C541.695,619.6,541.436,619.778,541.053,620.089Z" transform="translate(-521.093 -593.219)" fill="#fff"/>
        <path id="Pfad_122" data-name="Pfad 122" d="M457.789,620l-1.841-1.507a16.048,16.048,0,0,0-12.593-3.4c-.11.013-.218.035-.328.048-1.076.13-1.151.074-1.148-1q.021-8.006.051-16.011c0-1.161-.009-2.323-.013-3.484a1.045,1.045,0,0,1,.938-1.158c5.249-1.059,10.882.346,14.347,5.021a3.315,3.315,0,0,1,.632,1.823c.045,6.36.028,12.72.026,19.081C457.86,619.547,457.829,619.68,457.789,620Z" transform="translate(-438.498 -593.154)" fill="#fff"/>
        <path id="Pfad_123" data-name="Pfad 123" d="M567.793,627.971a46.528,46.528,0,0,0-17.87,1.221l-.078-.209a9.64,9.64,0,0,1,.806-.635,18.578,18.578,0,0,1,13.772-2.865c1.011.189,1.1.1,1.095-.933q-.012-9.625-.034-19.249c0-1.31.259-1.51,1.516-1.271.609.116.8.45.8,1.042-.018,2.434-.005,4.868,0,7.3q0,7.26,0,14.52Z" transform="translate(-528.533 -602.151)" fill="#fff"/>
        <path id="Pfad_124" data-name="Pfad 124" d="M439.513,629.213a49.464,49.464,0,0,0-17.953-1.106c-.017-.334-.044-.628-.045-.922q0-10.79,0-21.58a1.315,1.315,0,0,1,1.869-1.392.709.709,0,0,1,.369.465,4.9,4.9,0,0,1,.089,1.069q-.01,9.3-.029,18.591c0,1.454,0,1.442,1.433,1.208a18.936,18.936,0,0,1,14,3.317A2.716,2.716,0,0,1,439.513,629.213Z" transform="translate(-421.515 -602.29)" fill="#fff"/>
      </g>
    </g>
  </g>
</svg>
