<svg id="Organism_Nav_CARELINE-SHOP" data-name="Organism / Nav / CARELINE-SHOP" xmlns="http://www.w3.org/2000/svg" xmlns:xlink="http://www.w3.org/1999/xlink" width="1440" height="170" viewBox="0 0 1440 170">
  <defs>
    <clipPath id="clip-path">
      <path id="Pfad_290" data-name="Pfad 290" d="M11.708,84.581a.778.778,0,0,0-.794.794v4.953h4.953a.778.778,0,0,0,.795-.794V84.581Z" transform="translate(-10.914 -84.581)" fill="#5da169"/>
    </clipPath>
  </defs>
  <rect id="Rechteck_98" data-name="Rechteck 98" width="1440" height="64" transform="translate(0 106)" fill="#00778c" opacity="0.998"/>
  <g id="Gruppe_226" data-name="Gruppe 226">
    <g id="Gruppe_225" data-name="Gruppe 225">
      <text id="Themenwelten" transform="translate(781 144)" fill="#fff" font-size="16" font-family="GalanoGrotesque-Medium, Galano Grotesque" font-weight="500"><tspan x="0" y="0">Themenwelten</tspan></text>
      <path id="Pfad_4" data-name="Pfad 4" d="M9961.313,5011l3.883,3.166c.079,0,4.033-3.166,4.033-3.166" transform="translate(10878.229 5150.666) rotate(180)" fill="none" stroke="#fff" stroke-linecap="round" stroke-linejoin="round" stroke-width="1"/>
    </g>
    <g id="Gruppe_224" data-name="Gruppe 224">
      <text id="Angebote" transform="translate(999 144)" fill="#fff" font-size="16" font-family="GalanoGrotesque-Medium, Galano Grotesque" font-weight="500"><tspan x="0" y="0">Angebote</tspan></text>
      <path id="Pfad_5" data-name="Pfad 5" d="M9961.313,5011l3.883,3.166c.079,0,4.033-3.166,4.033-3.166" transform="translate(-3924.625 10103.729) rotate(-90)" fill="none" stroke="#fff" stroke-linecap="round" stroke-linejoin="round" stroke-width="1"/>
    </g>
    <g id="Gruppe_223" data-name="Gruppe 223">
      <g id="Gruppe_120" data-name="Gruppe 120" transform="translate(-36 11)">
        <text id="Produkte" transform="translate(657 133)" fill="#fff" font-size="16" font-family="GalanoGrotesque-Medium, Galano Grotesque" font-weight="500"><tspan x="0" y="0">Produkte</tspan></text>
      </g>
      <path id="Pfad_6" data-name="Pfad 6" d="M9961.313,5011l3.883,3.166c.079,0,4.033-3.166,4.033-3.166" transform="translate(10670.229 5151.041) rotate(180)" fill="none" stroke="#fff" stroke-linecap="round" stroke-linejoin="round" stroke-width="1"/>
    </g>
  </g>
  <g id="Gruppe_372" data-name="Gruppe 372">
    <rect id="Rechteck_96" data-name="Rechteck 96" width="1440" height="42" fill="#ededee"/>
    <g id="Gruppe_221" data-name="Gruppe 221" transform="translate(-98)">
      <g id="Gruppe_215" data-name="Gruppe 215" transform="translate(337)">
        <text id="HALLO_ANMELDEN" data-name="HALLO! ANMELDEN" transform="translate(828 25)" fill="#4f5456" font-size="12" font-family="GalanoGrotesque-Bold, Galano Grotesque" font-weight="700"><tspan x="0" y="0">HALLO! ANMELDEN</tspan></text>
      </g>
      <g id="Gruppe_218" data-name="Gruppe 218" transform="translate(313 -170)">
        <circle id="Ellipse_50" data-name="Ellipse 50" cx="4" cy="4" r="4" transform="translate(832 183)" fill="#4f5456"/>
        <path id="Differenzmenge_1" data-name="Differenzmenge 1" d="M-4270-1428h-16c0-3.86,3.589-7,8-7s8,3.14,8,7Z" transform="translate(5114 1627)" fill="#4f5456"/>
      </g>
    </g>
    <g id="Gruppe_229" data-name="Gruppe 229" transform="translate(1320.829 12)">
      <g id="ZKKq2G">
        <g id="Gruppe_227" data-name="Gruppe 227">
          <path id="Pfad_7" data-name="Pfad 7" d="M4183.847,1965.984h9.648a1.847,1.847,0,0,0,1.671-2.715,1.2,1.2,0,0,1-.079-.948c.936-3.252,1.852-5.387,2.769-8.644.046-.163.106-.228.287-.225.725.012,1.45-.009,2.174.011a.734.734,0,0,0,.783-.46v-.331a.735.735,0,0,0-.783-.461c-.922.018-1.846.006-2.769.006a.631.631,0,0,0-.718.556l-.55,1.926h-.255q-7.6,0-15.2-.009a.671.671,0,0,0-.686.913c.812,2.824,1.609,4.53,2.413,7.356a.629.629,0,0,0,.727.544q5.18,0,10.359-.006a.37.37,0,0,1,.4.253c.256.551-.008.994-.611.994h-10.194a.619.619,0,0,0-.615.878.589.589,0,0,0,.572.362" transform="translate(-4180.1 -1952.211)" fill="#4f5456"/>
          <path id="Pfad_8" data-name="Pfad 8" d="M4231.986,2025.915h5.545" transform="translate(-4226.127 -2012.134)" fill="#4f5456"/>
        </g>
      </g>
      <g id="Gruppe_228" data-name="Gruppe 228" transform="translate(4.129 14.158)">
        <ellipse id="Ellipse_53" data-name="Ellipse 53" cx="1.421" cy="1.421" rx="1.421" ry="1.421" transform="translate(6.176)" fill="#4f5456"/>
        <ellipse id="Ellipse_54" data-name="Ellipse 54" cx="1.421" cy="1.421" rx="1.421" ry="1.421" transform="translate(0)" fill="#4f5456"/>
      </g>
    </g>
    <g id="Gruppe_397" data-name="Gruppe 397">
      <g id="Gruppe_102" data-name="Gruppe 102" transform="translate(-380)">
        <text id="Persönliche_Beratung" data-name="Persönliche Beratung" transform="translate(496 25)" fill="#65af7d" font-size="12" font-family="GalanoGrotesque-Bold, Galano Grotesque" font-weight="700"><tspan x="0" y="0">Persönliche Beratung</tspan></text>
      </g>
      <g id="Atom_Icon_Hook" data-name="Atom / Icon / Hook" transform="translate(98 15)">
        <g id="Gruppe_257" data-name="Gruppe 257" transform="translate(-390.277 -1297.902)" style="mix-blend-mode: multiply;isolation: isolate">
          <path id="Pfad_9" data-name="Pfad 9" d="M390.35,1304.115l2.364,4.249c.348.625,1.821.429,2.154-.131a43.141,43.141,0,0,1,6.949-9.3c1-.961-1.14-1.353-1.782-.738a44.622,44.622,0,0,0-7.275,9.622l2.154-.131-2.364-4.249c-.431-.774-2.706-.237-2.2.673Z" fill="#65af7d"/>
        </g>
      </g>
    </g>
    <g id="Gruppe_369" data-name="Gruppe 369" transform="translate(9)">
      <g id="Gruppe_103" data-name="Gruppe 103" transform="translate(306)">
        <text id="_98_Kundenzufriedenheit" data-name="98% Kundenzufriedenheit" transform="translate(106 25)" fill="#65af7d" font-size="12" font-family="GalanoGrotesque-Bold, Galano Grotesque" font-weight="700"><tspan x="0" y="0">98% Kundenzufriedenheit</tspan></text>
      </g>
      <g id="Atom_Icon_Hook-2" data-name="Atom / Icon / Hook" transform="translate(392 15)">
        <g id="Gruppe_257-2" data-name="Gruppe 257" transform="translate(-390.277 -1297.902)" style="mix-blend-mode: multiply;isolation: isolate">
          <path id="Pfad_9-2" data-name="Pfad 9" d="M390.35,1304.115l2.364,4.249c.348.625,1.821.429,2.154-.131a43.141,43.141,0,0,1,6.949-9.3c1-.961-1.14-1.353-1.782-.738a44.622,44.622,0,0,0-7.275,9.622l2.154-.131-2.364-4.249c-.431-.774-2.706-.237-2.2.673Z" fill="#65af7d"/>
        </g>
      </g>
    </g>
    <g id="Gruppe_370" data-name="Gruppe 370">
      <g id="Gruppe_101" data-name="Gruppe 101" transform="translate(-17)">
        <text id="Familiengeführtes_Unternehmen" data-name="Familiengeführtes Unternehmen" transform="translate(767 25)" fill="#65af7d" font-size="12" font-family="GalanoGrotesque-Bold, Galano Grotesque" font-weight="700"><tspan x="0" y="0">Familiengeführtes Unternehmen</tspan></text>
      </g>
      <g id="Atom_Icon_Hook-3" data-name="Atom / Icon / Hook" transform="translate(730 15)">
        <g id="Gruppe_257-3" data-name="Gruppe 257" transform="translate(-390.277 -1297.902)" style="mix-blend-mode: multiply;isolation: isolate">
          <path id="Pfad_9-3" data-name="Pfad 9" d="M390.35,1304.115l2.364,4.249c.348.625,1.821.429,2.154-.131a43.141,43.141,0,0,1,6.949-9.3c1-.961-1.14-1.353-1.782-.738a44.622,44.622,0,0,0-7.275,9.622l2.154-.131-2.364-4.249c-.431-.774-2.706-.237-2.2.673Z" fill="#65af7d"/>
        </g>
      </g>
    </g>
  </g>
  <path id="Pfad_277" data-name="Pfad 277" d="M0,0H1440V64H0Z" transform="translate(0 42)" fill="#fff" opacity="0.996"/>
  <g id="Gruppe_396" data-name="Gruppe 396">
    <rect id="Rechteck_97" data-name="Rechteck 97" width="1440" height="64" transform="translate(0 42)" fill="#fff" opacity="0.996"/>
    <g id="Gruppe_155" data-name="Gruppe 155" transform="translate(-35)">
      <text id="Kontakt" transform="translate(1200 80)" fill="#4f5456" font-size="15" font-family="GalanoGrotesque-Medium, Galano Grotesque" font-weight="500"><tspan x="0" y="0">KONTAKT</tspan></text>
    </g>
    <g id="Gruppe_156" data-name="Gruppe 156" transform="translate(122)">
      <text id="DE" transform="translate(1200 80)" fill="#4f5456" font-size="15" font-family="GalanoGrotesque-Medium, Galano Grotesque" font-weight="500"><tspan x="0" y="0">DE</tspan></text>
    </g>
    <g id="Gruppe_389" data-name="Gruppe 389" transform="translate(-142.435)">
      <g id="Gruppe_124" data-name="Gruppe 124" transform="translate(-192.565)">
        <text id="Careline_PFLEGEShop" data-name="Careline PFLEGEShop" transform="translate(950 80)" fill="#4f5456" font-size="15" font-family="GalanoGrotesque-Bold, Galano Grotesque" font-weight="700" text-decoration="underline"><tspan x="0" y="0">CARELINE PFLEGESHOP</tspan></text>
      </g>
    </g>
    <g id="Gruppe_395" data-name="Gruppe 395" transform="translate(309)">
      <g id="Gruppe_122" data-name="Gruppe 122" transform="translate(-121)">
        <text id="CARELINE_Einrichtung" data-name="CARELINE Einrichtung" transform="translate(692 80)" fill="#4f5456" font-size="15" font-family="GalanoGrotesque-Medium, Galano Grotesque" font-weight="500"><tspan x="0" y="0">CARELINE EINRICHTUNG</tspan></text>
      </g>
      <g id="Atom_Icon_Arrow-external" data-name="Atom / Icon / Arrow-external" transform="translate(757 67.282)">
        <g id="Gruppe_387" data-name="Gruppe 387" transform="translate(0 7.778) rotate(-45)">
          <line id="Linie_4" data-name="Linie 4" x2="11" transform="translate(0 4)" fill="none" stroke="#4f5456" stroke-linecap="round" stroke-width="2"/>
          <path id="Pfad_1" data-name="Pfad 1" d="M3.815,3.815,0,0" transform="translate(7.185 0)" fill="#4f5456" stroke="#4f5456" stroke-linecap="round" stroke-width="2"/>
          <path id="Pfad_2" data-name="Pfad 2" d="M3.815,0,0,3.815" transform="translate(7.185 4.185)" fill="#4f5456" stroke="#4f5456" stroke-linecap="round" stroke-width="2"/>
        </g>
      </g>
    </g>
    <g id="Gruppe_477" data-name="Gruppe 477" transform="translate(86.086 54.784)">
      <g id="Gruppe_479" data-name="Gruppe 479" transform="translate(40.058 8.216)">
        <path id="Pfad_278" data-name="Pfad 278" d="M182.877,25.707c-2.342,2.388-6.209,4.009-11.313,4.009-8.628,0-14.061-4.086-14.061-10.75s5.433-10.75,14.226-10.75c4.956,0,8.8,1.642,11.121,3.993l-3.483,1.806c-1.759-1.884-4.416-2.728-7.7-2.728-6.093,0-10.143,2.608-10.143,7.679s4.05,7.679,10.143,7.679c3.319,0,6.021-.838,7.808-2.774Z" transform="translate(-157.503 -8.216)" fill="#4f5456"/>
        <g id="Gruppe_478" data-name="Gruppe 478" transform="translate(27.572 0.608)">
          <path id="Pfad_279" data-name="Pfad 279" d="M318.183,26.662H303.4l-2.931,4.9h-4.281l12.481-20.283h4.347l12.448,20.283h-4.314Zm-1.745-2.956-5.632-9.388-5.631,9.388Z" transform="translate(-296.185 -11.276)" fill="#4f5456"/>
          <g id="Gruppe_477-2" data-name="Gruppe 477" transform="translate(33.7)">
            <path id="Pfad_280" data-name="Pfad 280" d="M486.5,31.559l-9.678-7.36h-7.183v7.36h-3.952V11.276h15.675c5.368,0,9.32,2.261,9.32,6.462,0,3.5-3.944,6.288-9.316,6.288l10.008,7.534Zm-5.4-10.344c3.293,0,5.532-.927,5.532-3.448s-2.239-3.448-5.532-3.448H469.61v6.9Z" transform="translate(-465.691 -11.276)" fill="#4f5456"/>
            <path id="Pfad_281" data-name="Pfad 281" d="M639.777,28.517v3.043H617.155V11.276h22.624v3.043H621.074v5.418h15.741V22.78H621.074v5.737Z" transform="translate(-587.042 -11.276)" fill="#4f5456"/>
            <path id="Pfad_282" data-name="Pfad 282" d="M773.127,30.139v1.42H753.2V11.276h1.712V30.139Z" transform="translate(-696.042 -11.276)" fill="#4f5456"/>
            <path id="Pfad_283" data-name="Pfad 283" d="M875.673,31.559V11.276h1.712V31.559Z" transform="translate(-794.163 -11.276)" fill="#4f5456"/>
            <path id="Pfad_284" data-name="Pfad 284" d="M930.317,11.276V31.559H928.8L908.22,13.189V31.559h-1.68V11.276h1.91l20.187,18.052V11.276Z" transform="translate(-818.893 -11.276)" fill="#4f5456"/>
            <path id="Pfad_285" data-name="Pfad 285" d="M1069.76,30.139v1.42h-21.373V11.276h21.373v1.391H1050.1V20.52h16.861v1.42H1050.1v8.2Z" transform="translate(-932.539 -11.276)" fill="#4f5456"/>
          </g>
        </g>
      </g>
      <path id="Pfad_286" data-name="Pfad 286" d="M11.711,47.879a.78.78,0,0,0-.8.8v3.831a.78.78,0,0,0,.8.8H23.966V47.879Z" transform="translate(0 -31.777)" fill="#209b7f"/>
      <path id="Pfad_287" data-name="Pfad 287" d="M11.711,11.178a.78.78,0,0,0-.8.8v3.831a.78.78,0,0,0,.8.8H31.255V11.178Z" transform="translate(0 -2.373)" fill="#00657a"/>
      <g id="Gruppe_481" data-name="Gruppe 481" transform="translate(10.914 23.398)">
        <path id="Pfad_288" data-name="Pfad 288" d="M11.708,84.581a.778.778,0,0,0-.794.794v4.953h4.953a.778.778,0,0,0,.795-.794V84.581Z" transform="translate(-10.914 -84.581)" fill="#5da169"/>
        <g id="Gruppe_480" data-name="Gruppe 480" transform="translate(0)" clip-path="url(#clip-path)">
          <path id="Pfad_289" data-name="Pfad 289" d="M17.118,90.8h-6.2v-.473l5.747-5.747h.456Z" transform="translate(-10.914 -84.581)" fill="#82b484"/>
        </g>
      </g>
      <path id="Pfad_291" data-name="Pfad 291" d="M85.943,16.6v14.12a.78.78,0,0,0,.8.8H90.57a.78.78,0,0,0,.8-.8V11.178Z" transform="translate(-60.112 -2.373)" fill="#2d7a8e"/>
      <path id="Pfad_292" data-name="Pfad 292" d="M54.666,47.839V60.094a.78.78,0,0,1-.8.8H50.039a.78.78,0,0,1-.8-.8V53.263Z" transform="translate(-30.708 -31.745)" fill="#58ad96"/>
    </g>
    <g id="Gruppe_482" data-name="Gruppe 482">
      <text id="CARELINE.DE" transform="translate(413 80)" fill="#4f5456" font-size="15" font-family="GalanoGrotesque-Medium, Galano Grotesque" font-weight="500"><tspan x="0" y="0">CARELINE.DE</tspan></text>
      <g id="Atom_Icon_Arrow-external-2" data-name="Atom / Icon / Arrow-external" transform="translate(515.565 67)">
        <g id="Gruppe_387-2" data-name="Gruppe 387" transform="translate(0 7.778) rotate(-45)">
          <line id="Linie_4-2" data-name="Linie 4" x2="11" transform="translate(0 4)" fill="none" stroke="#4f5456" stroke-linecap="round" stroke-width="2"/>
          <path id="Pfad_1-2" data-name="Pfad 1" d="M3.815,3.815,0,0" transform="translate(7.185 0)" fill="#4f5456" stroke="#4f5456" stroke-linecap="round" stroke-width="2"/>
          <path id="Pfad_2-2" data-name="Pfad 2" d="M3.815,0,0,3.815" transform="translate(7.185 4.185)" fill="#4f5456" stroke="#4f5456" stroke-linecap="round" stroke-width="2"/>
        </g>
      </g>
    </g>
  </g>
  <g id="Gruppe_222" data-name="Gruppe 222" transform="translate(0 -1)">
    <path id="Pfad_135" data-name="Pfad 135" d="M8,0H456a8,8,0,0,1,8,8V28a8,8,0,0,1-8,8H8a8,8,0,0,1-8-8V8A8,8,0,0,1,8,0Z" transform="translate(98 121)" fill="#fff" opacity="0.2"/>
    <text id="Nach_Begriff_oder_Artikelnummer_suchen" data-name="Nach Begriff oder Artikelnummer suchen" transform="translate(149 131)" fill="#fff" font-size="12" font-family="GalanoGrotesque-Light, Galano Grotesque" font-weight="300"><tspan x="0" y="12">Nach Begriff oder Artikelnummer suchen</tspan></text>
    <g id="Gruppe_220" data-name="Gruppe 220" transform="translate(-791 -59.75)">
      <line id="Linie_42" data-name="Linie 42" x2="2.681" y2="2.682" transform="translate(918.819 202.818)" fill="none" stroke="#fff" stroke-linecap="round" stroke-width="2"/>
      <g id="Ellipse_52" data-name="Ellipse 52" transform="translate(907 191)" fill="none" stroke="#fff" stroke-width="2">
        <circle cx="7" cy="7" r="7" stroke="none"/>
        <circle cx="7" cy="7" r="6" fill="none"/>
      </g>
    </g>
  </g>
</svg>
