<svg id="Atom_Icon_Covid" data-name="Atom / Icon / Covid" xmlns="http://www.w3.org/2000/svg" width="19.413" height="19.095" viewBox="0 0 19.413 19.095">
  <g id="Gruppe_454" data-name="Gruppe 454" transform="translate(-136.903 -220.128)">
    <circle id="Ellipse_65" data-name="Ellipse 65" cx="5.522" cy="5.522" r="5.522" transform="translate(141.08 224.122)" fill="none" stroke="#3f4344" stroke-miterlimit="10" stroke-width="1.3"/>
    <g id="Gruppe_453" data-name="Gruppe 453">
      <path id="Pfad_235" data-name="Pfad 235" d="M148.208,220.738c0-.337-.612-.61-1.366-.61s-1.366.273-1.366.61c0,.278.419.51.988.584v2.526h.756v-2.526C147.789,221.248,148.208,221.016,148.208,220.738Z" fill="#3f4344"/>
      <path id="Pfad_236" data-name="Pfad 236" d="M145.476,238.613c0,.337.612.61,1.366.61s1.366-.273,1.366-.61c0-.278-.419-.51-.988-.583V235.5h-.756v2.526C145.9,238.1,145.476,238.335,145.476,238.613Z" fill="#3f4344"/>
      <path id="Pfad_237" data-name="Pfad 237" d="M155.706,231.344c.337,0,.61-.611.61-1.366s-.273-1.365-.61-1.365c-.278,0-.51.418-.584.988H152.6v.755h2.526C155.2,230.925,155.428,231.344,155.706,231.344Z" fill="#3f4344"/>
      <path id="Pfad_238" data-name="Pfad 238" d="M137.514,228.613c-.337,0-.611.611-.611,1.365s.274,1.366.611,1.366c.278,0,.51-.419.583-.988h2.526V229.6H138.1C138.024,229.031,137.792,228.613,137.514,228.613Z" fill="#3f4344"/>
      <path id="Pfad_239" data-name="Pfad 239" d="M154.06,224.486c.238-.238,0-.864-.535-1.4s-1.159-.773-1.4-.534c-.2.2-.065.656.286,1.111l-1.786,1.786.534.534,1.786-1.786C153.4,224.551,153.863,224.683,154.06,224.486Z" fill="#3f4344"/>
      <path id="Pfad_240" data-name="Pfad 240" d="M139.488,235.194c-.238.238,0,.864.535,1.4s1.159.773,1.4.535c.2-.2.065-.657-.286-1.112l1.786-1.786-.534-.534L140.6,235.48C140.145,235.129,139.685,235,139.488,235.194Z" fill="#3f4344"/>
      <path id="Pfad_241" data-name="Pfad 241" d="M151.862,237.287c.238.239.864,0,1.4-.534s.773-1.159.534-1.4c-.2-.2-.656-.065-1.111.286l-1.786-1.786-.534.534,1.786,1.786C151.8,236.631,151.665,237.091,151.862,237.287Z" fill="#3f4344"/>
      <path id="Pfad_242" data-name="Pfad 242" d="M140.93,222.492c-.239-.238-.864,0-1.4.534s-.772,1.159-.534,1.4c.2.2.657.064,1.111-.286l1.786,1.786.535-.535-1.786-1.786C140.994,223.149,141.126,222.689,140.93,222.492Z" fill="#3f4344"/>
    </g>
  </g>
</svg>
