<svg id="Atom_Icon_Service" data-name="Atom / Icon / Service" xmlns="http://www.w3.org/2000/svg" width="34.238" height="37.314" viewBox="0 0 34.238 37.314">
  <rect id="Rechteck_220" data-name="Rechteck 220" width="3.277" height="4.759" transform="translate(26.649 9.641)" fill="#4f5456"/>
  <path id="Differenzmenge_1" data-name="Differenzmenge 1" d="M143.536,186.628H109.3c0-8.259,7.679-14.978,17.119-14.978S143.536,178.369,143.536,186.628Z" transform="translate(-109.298 -149.313)" fill="#4f5456"/>
  <path id="Pfad_135" data-name="Pfad 135" d="M134.549,171.425a11.636,11.636,0,0,0-21.284-6.506l1.717,1.218a9.531,9.531,0,0,1,17.462,5.288" transform="translate(-105.795 -159.788)" fill="#4f5456"/>
  <path id="Pfad_136" data-name="Pfad 136" d="M123.418,171.562l7.489-2.128a8.536,8.536,0,0,0-8.592-8.012,8.7,8.7,0,0,0-8.472,8.585,8.559,8.559,0,0,0,8.619,8.534h.006l-.992-3.493A2.823,2.823,0,0,1,123.418,171.562Z" transform="translate(-105.285 -158.345)" fill="#4f5456"/>
  <g id="Gruppe_328" data-name="Gruppe 328" transform="translate(17.202 12.429)">
    <circle id="Ellipse_60" data-name="Ellipse 60" cx="2.036" cy="2.036" r="2.036" transform="translate(0 1.972)" fill="#4f5456"/>
    <rect id="Rechteck_221" data-name="Rechteck 221" width="10.824" height="2.015" transform="translate(1.764 2.959) rotate(-15.866)" fill="#4f5456"/>
  </g>
</svg>
