<svg id="Atom_Icon_Lieferservice" data-name="Atom / Icon / Lieferservice" xmlns="http://www.w3.org/2000/svg" width="60.454" height="38.314" viewBox="0 0 60.454 38.314">
  <ellipse id="Ellipse_61" data-name="Ellipse 61" cx="5.939" cy="5.939" rx="5.939" ry="5.939" transform="translate(41.598 26.437)" fill="#4f5456"/>
  <ellipse id="Ellipse_62" data-name="Ellipse 62" cx="5.939" cy="5.939" rx="5.939" ry="5.939" transform="translate(16.296 26.437)" fill="#4f5456"/>
  <path id="Pfad_137" data-name="Pfad 137" d="M68.841,160.081H98.615l-3.788,23.2H65.053Z" transform="translate(-54.718 -160.081)" fill="#4f5456"/>
  <rect id="Rechteck_222" data-name="Rechteck 222" width="51.221" height="6.299" rx="0.836" transform="translate(9.232 25.511)" fill="#4f5456"/>
  <rect id="Rechteck_223" data-name="Rechteck 223" width="14.64" height="2.475" rx="0.539" transform="translate(5.139 3.704)" fill="#4f5456"/>
  <rect id="Rechteck_224" data-name="Rechteck 224" width="14.64" height="2.475" rx="0.539" transform="translate(2.541 9.942)" fill="#4f5456"/>
  <rect id="Rechteck_225" data-name="Rechteck 225" width="14.64" height="2.475" rx="0.539" transform="translate(0 16.18)" fill="#4f5456"/>
  <path id="Pfad_138" data-name="Pfad 138" d="M99.517,174.732l-5.054-9.557a1.58,1.58,0,0,0-1.4-.843H85.7a1.582,1.582,0,0,0-1.552,1.285l-3.186,16.741a1.578,1.578,0,0,0,1.552,1.874H98.119a1.581,1.581,0,0,0,1.581-1.579v-7.182A1.585,1.585,0,0,0,99.517,174.732Zm-4.071.32h-9.37a.743.743,0,0,1-.74-.811l1.078-6.827a.744.744,0,0,1,.74-.677H92.2a.744.744,0,0,1,.671.424l3.242,6.829A.743.743,0,0,1,95.446,175.052Z" transform="translate(-39.247 -155.94)" fill="#4f5456"/>
</svg>
