<svg xmlns="http://www.w3.org/2000/svg" width="22.165" height="18.63" viewBox="0 0 22.165 18.63">
  <g id="Atom_Icon_Textilien" data-name="Atom / Icon / Textilien" transform="translate(0.65 0.65)">
    <g id="Gruppe_463" data-name="Gruppe 463" transform="translate(-186.352 -220.734)">
      <path id="Pfad_252" data-name="Pfad 252" d="M201.711,230.09v-3.717l1.349,1.349,2.8-2.8-4.15-4.187h-2.359c0,.663-1.4,1.2-3.116,1.2s-3.116-.538-3.116-1.2H190.5l-4.151,4.2,2.8,2.8,1.35-1.35v9.163h3.967" fill="none" stroke="#3f4344" stroke-linecap="round" stroke-linejoin="round" stroke-width="1.3"/>
      <g id="Gruppe_462" data-name="Gruppe 462">
        <rect id="Rechteck_319" data-name="Rechteck 319" width="10.266" height="1.827" rx="0.67" transform="translate(207.492 238.339) rotate(-180)" fill="none" stroke="#3f4344" stroke-miterlimit="10" stroke-width="0.75"/>
        <rect id="Rechteck_320" data-name="Rechteck 320" width="10.266" height="1.827" rx="0.67" transform="translate(207.492 236.512) rotate(-180)" fill="none" stroke="#3f4344" stroke-miterlimit="10" stroke-width="0.75"/>
        <rect id="Rechteck_321" data-name="Rechteck 321" width="7.63" height="1.827" rx="0.577" transform="translate(207.492 234.685) rotate(-180)" fill="none" stroke="#3f4344" stroke-miterlimit="10" stroke-width="0.75"/>
      </g>
      <g id="Gruppe_300" data-name="Gruppe 300">
        <path id="Vereinigungsmenge_1" data-name="Vereinigungsmenge 1" d="M195.25,233.125v-1.892h-1.892v-1.971h1.892V227.37h1.971v1.892h1.892v1.971h-1.892v1.892Z" fill="none" stroke="#3f4344" stroke-miterlimit="10" stroke-width="0.75"/>
      </g>
    </g>
  </g>
</svg>
