<svg xmlns="http://www.w3.org/2000/svg" width="23.261" height="18.84" viewBox="0 0 23.261 18.84">
  <g id="Atom_Icon_Sitzen_Liegen" data-name="Atom / Icon / Sitzen&amp;Liegen" transform="translate(0.65 0.65)">
    <g id="Gruppe_459" data-name="Gruppe 459" transform="translate(-320.987 -220.814)">
      <g id="Gruppe_458" data-name="Gruppe 458">
        <rect id="Rechteck_318" data-name="Rechteck 318" width="13.169" height="6.428" rx="2.074" transform="translate(325.28 229.797)" fill="none" stroke="#3f4344" stroke-miterlimit="10" stroke-width="1.3"/>
        <line id="Linie_45" data-name="Linie 45" y2="6.119" transform="translate(325.28 232.235)" fill="none" stroke="#3f4344" stroke-linecap="round" stroke-miterlimit="10" stroke-width="1.3"/>
        <line id="Linie_46" data-name="Linie 46" y2="6.119" transform="translate(338.448 232.235)" fill="none" stroke="#3f4344" stroke-linecap="round" stroke-miterlimit="10" stroke-width="1.3"/>
        <path id="Pfad_249" data-name="Pfad 249" d="M338.672,231.738l4.161-7.206a.458.458,0,0,0-.167-.625l-.934-.539a2.855,2.855,0,0,0-3.9,1.045l-2.962,5.131" fill="none" stroke="#3f4344" stroke-linecap="round" stroke-miterlimit="10" stroke-width="1.3"/>
      </g>
      <circle id="Ellipse_67" data-name="Ellipse 67" cx="2.171" cy="2.171" r="2.171" transform="translate(333.853 220.814)" fill="none" stroke="#3f4344" stroke-miterlimit="10" stroke-width="1.3"/>
      <line id="Linie_47" data-name="Linie 47" x1="3.007" y2="5.094" transform="translate(331.864 224.704)" fill="none" stroke="#3f4344" stroke-miterlimit="10" stroke-width="1.3"/>
      <path id="Pfad_250" data-name="Pfad 250" d="M325.367,234.583l-2.475,3.157a1.15,1.15,0,0,1-1.551.416h0a1.15,1.15,0,0,1-.064-1.605l4.327-5.878" fill="none" stroke="#3f4344" stroke-miterlimit="10" stroke-width="1.3"/>
    </g>
  </g>
</svg>
