<svg xmlns="http://www.w3.org/2000/svg" width="21.057" height="18.56" viewBox="0 0 21.057 18.56">
  <g id="Atom_Icon_Erste_Hilfe" data-name="Atom / Icon / Erste Hilfe" transform="translate(0.65 0.65)">
    <g id="Gruppe_456" data-name="Gruppe 456" transform="translate(-263.268 -220.858)">
      <path id="Pfad_244" data-name="Pfad 244" d="M280.415,225.247H265.878a2.61,2.61,0,0,0-2.61,2.609v7.653a2.61,2.61,0,0,0,2.61,2.609h14.537a2.609,2.609,0,0,0,2.61-2.609v-7.653A2.609,2.609,0,0,0,280.415,225.247Z" fill="none" stroke="#3f4344" stroke-miterlimit="10" stroke-width="1.3"/>
      <path id="Pfad_245" data-name="Pfad 245" d="M278.495,225.247v-3.57a.819.819,0,0,0-.818-.819h-9.353a.819.819,0,0,0-.819.819v3.57" fill="none" stroke="#3f4344" stroke-miterlimit="10" stroke-width="1.3"/>
      <path id="Pfad_246" data-name="Pfad 246" d="M276.686,232.893h-2.329v2.329h-2.422v-2.329h-2.329v-2.422h2.329v-2.329h2.422v2.329h2.329Z" fill="none" stroke="#3f4344" stroke-miterlimit="10" stroke-width="1.3"/>
    </g>
  </g>
</svg>
